<svg width="1000" height="518" viewBox="0 0 1000 518" fill="none" xmlns="http://www.w3.org/2000/svg">
<path d="M249.867 0V509.549H760.743V0H249.867ZM730.769 480.371H279.841V29.443H730.769V480.371Z" fill="#5998F7"/>
<path d="M254.907 0C253.316 0 251.724 0 249.867 0V29.9735C251.459 29.9735 253.05 29.9735 254.907 29.9735C379.31 29.9735 480.106 130.769 480.106 255.172C480.106 379.576 379.31 480.371 254.907 480.371C253.316 480.371 251.724 480.371 249.867 480.371V510.08C251.459 510.08 253.05 510.08 254.907 510.08C395.756 510.08 509.814 396.021 509.814 255.172C509.814 114.324 395.491 0 254.907 0Z" fill="#5998F6"/>
<path d="M29.7083 254.907C29.7083 132.361 127.851 32.626 249.867 29.9735V0C111.406 2.65252 0 115.915 0 254.907C0 393.899 111.406 507.162 249.867 509.814V480.106C127.851 477.454 29.7083 377.719 29.7083 254.907Z" fill="#5998F6"/>
<path d="M760.743 0H730.769L506.896 480.371H542.175L745.623 43.7666L950.398 480.371H760.743V509.814H1000L760.743 0Z" fill="#5998F6"/>
<g filter="url(#filter0_d_13_2)">
<path d="M542.175 480.371H506.896L493.104 509.814H760.743V480.371H542.175Z" fill="#5998F6"/>
</g>
<defs>
<filter id="filter0_d_13_2" x="489.104" y="480.371" width="275.639" height="37.4429" filterUnits="userSpaceOnUse" color-interpolation-filters="sRGB">
<feFlood flood-opacity="0" result="BackgroundImageFix"/>
<feColorMatrix in="SourceAlpha" type="matrix" values="0 0 0 0 0 0 0 0 0 0 0 0 0 0 0 0 0 0 127 0" result="hardAlpha"/>
<feOffset dy="4"/>
<feGaussianBlur stdDeviation="2"/>
<feComposite in2="hardAlpha" operator="out"/>
<feColorMatrix type="matrix" values="0 0 0 0 0 0 0 0 0 0 0 0 0 0 0 0 0 0 0.25 0"/>
<feBlend mode="normal" in2="BackgroundImageFix" result="effect1_dropShadow_13_2"/>
<feBlend mode="normal" in="SourceGraphic" in2="effect1_dropShadow_13_2" result="shape"/>
</filter>
</defs>
</svg>
